<svg width="30" height="38" viewBox="0 0 30 38" fill="none" xmlns="http://www.w3.org/2000/svg">
<g clip-path="url(#clip0_1_159)" filter="url(#filter0_d_1_159)">
<path d="M16.0125 0.516844C15.7775 0.192469 15.4006 -3.05176e-05 15 -3.05176e-05C14.5993 -3.05176e-05 14.2225 0.192469 13.9875 0.516844C13.0037 1.87559 4.37497 13.9487 4.37497 19.375C4.37497 25.2337 9.14122 30 15 30C20.8587 30 25.625 25.2337 25.625 19.375C25.625 13.9487 16.9962 1.87559 16.0125 0.516844ZM15 27.5C10.52 27.5 6.87497 23.855 6.87497 19.375C6.87497 15.9087 12.0518 7.68997 15 3.41872C17.9481 7.68997 23.125 15.9087 23.125 19.375C23.125 23.855 19.48 27.5 15 27.5Z" fill="white"/>
<path d="M15 23.125C12.9319 23.125 11.25 21.4431 11.25 19.375C11.25 18.685 10.69 18.125 10 18.125C9.31 18.125 8.75 18.685 8.75 19.375C8.75 22.8212 11.5538 25.625 15 25.625C15.69 25.625 16.25 25.065 16.25 24.375C16.25 23.685 15.69 23.125 15 23.125Z" fill="white"/>
</g>
<defs>
<filter id="filter0_d_1_159" x="-4" y="-3.05176e-05" width="38" height="38" filterUnits="userSpaceOnUse" color-interpolation-filters="sRGB">
<feFlood flood-opacity="0" result="BackgroundImageFix"/>
<feColorMatrix in="SourceAlpha" type="matrix" values="0 0 0 0 0 0 0 0 0 0 0 0 0 0 0 0 0 0 127 0" result="hardAlpha"/>
<feOffset dy="4"/>
<feGaussianBlur stdDeviation="2"/>
<feComposite in2="hardAlpha" operator="out"/>
<feColorMatrix type="matrix" values="0 0 0 0 0 0 0 0 0 0 0 0 0 0 0 0 0 0 0.25 0"/>
<feBlend mode="normal" in2="BackgroundImageFix" result="effect1_dropShadow_1_159"/>
<feBlend mode="normal" in="SourceGraphic" in2="effect1_dropShadow_1_159" result="shape"/>
</filter>
<clipPath id="clip0_1_159">
<rect width="30" height="30" fill="white"/>
</clipPath>
</defs>
</svg>
