<svg width="30" height="30" viewBox="0 0 30 30" fill="none" xmlns="http://www.w3.org/2000/svg">
<g clip-path="url(#clip0_1_168)">
<g filter="url(#filter0_d_1_168)">
<path d="M2.12795 16.4506H23.5595C26.6667 16.4506 29.1944 13.9228 29.1944 10.8157C29.1944 7.7132 26.6739 5.18825 23.573 5.1809C23.2675 5.17629 21.2839 5.20374 19.8027 6.64791C18.8104 7.61541 18.3073 8.94482 18.3073 10.599C18.3073 11.3295 18.8994 11.9216 19.6299 11.9216C20.3603 11.9216 20.9523 11.3294 20.9523 10.599C20.9523 9.69306 21.1826 9.00511 21.6364 8.55448C22.3437 7.85203 23.444 7.82673 23.532 7.82585C23.5443 7.82624 23.5428 7.82605 23.5594 7.82605C25.208 7.82605 26.5493 9.16722 26.5493 10.8157C26.5493 12.4643 25.2081 13.8055 23.5594 13.8055H2.12795C1.39751 13.8055 0.805405 14.3976 0.805405 15.128C0.805405 15.8584 1.39751 16.4506 2.12795 16.4506Z" fill="white"/>
<path d="M2.12795 11.27H12.3433C15.4503 11.27 17.9781 8.74212 17.9781 5.63507C17.9781 2.53237 15.4578 0.00732144 12.3567 0.000262615C12.0476 -0.00405111 10.0671 0.023498 8.58633 1.46727C7.59408 2.43487 7.09094 3.76428 7.09094 5.4185C7.09094 6.14894 7.683 6.74114 8.41349 6.74114C9.14398 6.74114 9.73594 6.14899 9.73594 5.4185C9.73594 4.51252 9.96619 3.82458 10.42 3.37394C11.1272 2.67159 12.2275 2.6461 12.3158 2.64521C12.3281 2.64561 12.3265 2.64541 12.3432 2.64541C13.9917 2.64541 15.333 3.98659 15.333 5.63507C15.333 7.28364 13.9918 8.62482 12.3432 8.62482H2.12795C1.39751 8.62482 0.805405 9.21698 0.805405 9.94747C0.805405 10.678 1.39751 11.27 2.12795 11.27Z" fill="white"/>
<path d="M23.5595 18.73H2.12795C1.39751 18.73 0.805405 19.3222 0.805405 20.0526C0.805405 20.7829 1.39746 21.3751 2.12795 21.3751H23.5595C25.2081 21.3751 26.5493 22.7163 26.5493 24.3648C26.5493 26.0133 25.2081 27.3545 23.5595 27.3545C23.5429 27.3545 23.5444 27.3542 23.532 27.3547C23.4439 27.3538 22.3436 27.3284 21.6364 26.6261C21.1826 26.1755 20.9524 25.4875 20.9524 24.5814C20.9524 23.851 20.3604 23.2588 19.6299 23.2588C18.8995 23.2588 18.3074 23.8509 18.3074 24.5814C18.3074 26.2358 18.8104 27.5652 19.8028 28.5327C21.2243 29.9188 23.107 30.0001 23.528 30C23.5456 30 23.5606 29.9999 23.573 29.9997C26.674 29.9923 29.1944 27.4674 29.1944 24.3649C29.1944 21.2578 26.6667 18.73 23.5595 18.73Z" fill="white"/>
</g>
</g>
<defs>
<filter id="filter0_d_1_168" x="-3.1946" y="-1.52588e-05" width="36.389" height="38" filterUnits="userSpaceOnUse" color-interpolation-filters="sRGB">
<feFlood flood-opacity="0" result="BackgroundImageFix"/>
<feColorMatrix in="SourceAlpha" type="matrix" values="0 0 0 0 0 0 0 0 0 0 0 0 0 0 0 0 0 0 127 0" result="hardAlpha"/>
<feOffset dy="4"/>
<feGaussianBlur stdDeviation="2"/>
<feComposite in2="hardAlpha" operator="out"/>
<feColorMatrix type="matrix" values="0 0 0 0 0 0 0 0 0 0 0 0 0 0 0 0 0 0 0.25 0"/>
<feBlend mode="normal" in2="BackgroundImageFix" result="effect1_dropShadow_1_168"/>
<feBlend mode="normal" in="SourceGraphic" in2="effect1_dropShadow_1_168" result="shape"/>
</filter>
<clipPath id="clip0_1_168">
<rect width="30" height="30" fill="white"/>
</clipPath>
</defs>
</svg>
